# xmcd
#
# Track frame offsets: 
#        150
#        91490
#        132286
#        182104
#        203704
#        256343
#        272866
#
# Disc length: 4230 seconds
#
# Revision: 0
# Processed by: cddbd v1.5.2PL0 Copyright (c) Steve Scherf et al.
# Submitted via: ExactAudioCopy v0.95b4
#
DISCID=63108407
DTITLE=The Beatles  - AB  Road - Complete Purple Chick Set v1.1 Jan.26
DTITLE=Various Artist - D6  FLAC
DYEAR=1900
DGENRE=
TTITLE0=The Long And Winding Road 26.89
TTITLE1=The Long And Winding Road 26.90
TTITLE2=The Long And Winding Road 26.91
TTITLE3=The Long And Winding Road 26.92
TTITLE4=The Long And Winding Road 26.92P
TTITLE5=The Long And Winding Road 26.92P
TTITLE6=Dialogue
EXTD=
EXTT0=
EXTT1=
EXTT2=
EXTT3=
EXTT4=
EXTT5=
EXTT6=
PLAYORDER=
